{
  "asset": {
    "generator": "Khronos glTF Blender I/O v1.2.75",
    "version": "2.0"
  },
  "scene": 0,
  "scenes": [
    {
      "name": "Scene",
      "nodes": [0]
    }
  ],
  "nodes": [
    {
      "mesh": 0,
      "name": "planet",
      "rotation": [
        -0.7071068286895752,
        0.7071067690849304,
        0,
        -1.9949602858559956e-7
      ],
      "scale": [1.0349475145339966, 1.0349475145339966, 1.0349475145339966]
    }
  ],
  "materials": [
    {
      "doubleSided": true,
      "emissiveFactor": [0, 0, 0],
      "name": "parisTexture",
      "pbrMetallicRoughness": {
        "baseColorTexture": {
          "index": 0,
          "texCoord": 0
        },
        "metallicFactor": 0,
        "roughnessFactor": 0.5
      }
    }
  ],
  "meshes": [
    {
      "name": "Sphere.006",
      "primitives": [
        {
          "attributes": {
            "POSITION": 0,
            "NORMAL": 1,
            "TEXCOORD_0": 2,
            "COLOR_0": 3
          },
          "indices": 4,
          "material": 0
        }
      ]
    }
  ],
  "textures": [
    {
      "source": 0
    }
  ],
  "images": [
    {
      "bufferView": 5,
      "mimeType": "image/png",
      "name": "parisTexture"
    }
  ],
  "accessors": [
    {
      "bufferView": 0,
      "componentType": 5126,
      "count": 16252,
      "max": [1.0788105726242065, 1.4561548233032227, 1.2859814167022705],
      "min": [-1.1577777862548828, -1.6772022247314453, -1.0549736022949219],
      "type": "VEC3"
    },
    {
      "bufferView": 1,
      "componentType": 5126,
      "count": 16252,
      "type": "VEC3"
    },
    {
      "bufferView": 2,
      "componentType": 5126,
      "count": 16252,
      "type": "VEC2"
    },
    {
      "bufferView": 3,
      "componentType": 5126,
      "count": 16252,
      "type": "VEC4"
    },
    {
      "bufferView": 4,
      "componentType": 5123,
      "count": 20526,
      "type": "SCALAR"
    }
  ],
  "bufferViews": [
    {
      "buffer": 0,
      "byteLength": 195024,
      "byteOffset": 0
    },
    {
      "buffer": 0,
      "byteLength": 195024,
      "byteOffset": 195024
    },
    {
      "buffer": 0,
      "byteLength": 130016,
      "byteOffset": 390048
    },
    {
      "buffer": 0,
      "byteLength": 260032,
      "byteOffset": 520064
    },
    {
      "buffer": 0,
      "byteLength": 41052,
      "byteOffset": 780096
    },
    {
      "buffer": 0,
      "byteLength": 272,
      "byteOffset": 821148
    }
  ],
  "buffers": [
    {
      "byteLength": 821420,
      "uri": "data:application/octet-stream;base64,"
    }
  ]
}
